<svg width="42" height="42" viewBox="0 0 42 42" fill="none" xmlns="http://www.w3.org/2000/svg">
<g filter="url(#filter0_d)">
<circle cx="21" cy="21" r="15" fill="#5c2d91"/>
</g>
<path d="M19.2979 20.4471H18.2979V19.4755H19.2979V20.4471ZM23.2979 20.4471H22.2979V19.4755H23.2979V20.4471ZM27.2979 19.4755V21.4188H26.2979V23.8479C26.2979 24.0504 26.2588 24.2401 26.1807 24.4173C26.1025 24.5944 25.9958 24.7487 25.8604 24.8803C25.7249 25.0119 25.5661 25.1156 25.3838 25.1916C25.2015 25.2675 25.0062 25.3054 24.7979 25.3054H22.7354L19.2979 28.1597V25.3054H16.7979C16.5895 25.3054 16.3942 25.2675 16.2119 25.1916C16.0296 25.1156 15.8708 25.0119 15.7354 24.8803C15.5999 24.7487 15.4932 24.5944 15.415 24.4173C15.3369 24.2401 15.2979 24.0504 15.2979 23.8479V21.4188H14.2979V19.4755H15.2979V18.018C15.2979 17.8155 15.3369 17.6258 15.415 17.4486C15.4932 17.2715 15.5999 17.1172 15.7354 16.9856C15.8708 16.854 16.0296 16.7503 16.2119 16.6743C16.3942 16.5984 16.5895 16.5605 16.7979 16.5605H20.2979V14.9739C20.1468 14.8879 20.0244 14.769 19.9307 14.6172C19.8421 14.4653 19.7979 14.3034 19.7979 14.1313C19.7979 13.9947 19.8239 13.8682 19.876 13.7518C19.9281 13.6354 19.9984 13.5342 20.0869 13.4481C20.1807 13.357 20.2874 13.2862 20.4072 13.2356C20.527 13.185 20.6572 13.1597 20.7979 13.1597C20.9385 13.1597 21.0687 13.185 21.1885 13.2356C21.3083 13.2862 21.4124 13.357 21.501 13.4481C21.5947 13.5342 21.6676 13.6354 21.7197 13.7518C21.7718 13.8682 21.7979 13.9947 21.7979 14.1313C21.7979 14.3034 21.751 14.4653 21.6572 14.6172C21.5687 14.769 21.4489 14.8879 21.2979 14.9739V16.5605H24.7979C25.0062 16.5605 25.2015 16.5984 25.3838 16.6743C25.5661 16.7503 25.7249 16.854 25.8604 16.9856C25.9958 17.1172 26.1025 17.2715 26.1807 17.4486C26.2588 17.6258 26.2979 17.8155 26.2979 18.018V19.4755H27.2979ZM25.2979 18.018C25.2979 17.8864 25.2484 17.7725 25.1494 17.6764C25.0505 17.5802 24.9333 17.5321 24.7979 17.5321H16.7979C16.6624 17.5321 16.5452 17.5802 16.4463 17.6764C16.3473 17.7725 16.2979 17.8864 16.2979 18.018V23.8479C16.2979 23.9795 16.3473 24.0934 16.4463 24.1895C16.5452 24.2857 16.6624 24.3338 16.7979 24.3338H20.2979V26.0493L22.3604 24.3338H24.7979C24.9333 24.3338 25.0505 24.2857 25.1494 24.1895C25.2484 24.0934 25.2979 23.9795 25.2979 23.8479V18.018ZM18.6494 21.5251C18.9359 21.8034 19.264 22.0185 19.6338 22.1703C20.0036 22.3171 20.3916 22.3904 20.7979 22.3904C21.2041 22.3904 21.5921 22.3171 21.9619 22.1703C22.3317 22.0185 22.6598 21.8034 22.9463 21.5251L23.6494 22.2158C23.2692 22.5853 22.8317 22.8687 22.3369 23.066C21.8473 23.2634 21.3343 23.3621 20.7979 23.3621C20.2614 23.3621 19.7458 23.2634 19.251 23.066C18.7614 22.8687 18.3265 22.5853 17.9463 22.2158L18.6494 21.5251Z" fill="white"/>
<defs>
<filter id="filter0_d" x="0.893617" y="0.893617" width="40.2128" height="40.2128" filterUnits="userSpaceOnUse" color-interpolation-filters="sRGB">
<feFlood flood-opacity="0" result="BackgroundImageFix"/>
<feColorMatrix in="SourceAlpha" type="matrix" values="0 0 0 0 0 0 0 0 0 0 0 0 0 0 0 0 0 0 127 0"/>
<feOffset/>
<feGaussianBlur stdDeviation="2.55319"/>
<feColorMatrix type="matrix" values="0 0 0 0 0 0 0 0 0 0 0 0 0 0 0 0 0 0 0.25 0"/>
<feBlend mode="normal" in2="BackgroundImageFix" result="effect1_dropShadow"/>
<feBlend mode="normal" in="SourceGraphic" in2="effect1_dropShadow" result="shape"/>
</filter>
</defs>
</svg>